<?xml version="1.0" encoding="utf-8"?>
<!-- Generator: Adobe Illustrator 22.0.1, SVG Export Plug-In . SVG Version: 6.00 Build 0)  -->
<svg version="1.1" id="Capa_1" xmlns="http://www.w3.org/2000/svg" xmlns:xlink="http://www.w3.org/1999/xlink" x="0px" y="0px"
	 viewBox="0 0 300 150" style="enable-background:new 0 0 300 150;" xml:space="preserve">
<style type="text/css">
	.st0{display:none;opacity:0.56;fill:#FFFFFF;enable-background:new    ;}
	.st1{fill:#9E005D;}
	.st2{fill:#FFFFFF;}
	.st3{fill:#ED1C24;}
	.st4{fill:#3FA9F5;}
	.st5{fill:#2E3192;}
	.st6{font-family:'Impact';}
	.st7{font-size:41.845px;}
	.st8{font-family:'Roboto-Bold';}
</style>
<path class="st0" d="M225,110.7H123c-6.6,0-12-5.4-12-12V76.4c0-6.6,5.4-12,12-12h102c6.6,0,12,5.4,12,12v22.4
	C237,105.3,231.6,110.7,225,110.7z"/>
<g>
	<path class="st1" d="M94,135.1c-1.1,0-2.2-0.3-3.1-0.9l-75-45.3c-2.9-1.7-3.8-5.5-2.1-8.4l45.3-75c1.1-1.8,3.1-2.9,5.2-2.9
		c1.1,0,2.2,0.3,3.1,0.9l75,45.3c1.4,0.8,2.4,2.2,2.8,3.8s0.1,3.2-0.7,4.6l-45.3,75C98.2,133.9,96.2,135.1,94,135.1z"/>
	<path class="st2" d="M64.4,3.7L64.4,3.7c0.9,0,1.8,0.3,2.6,0.7l75,45.3c2.4,1.5,3.2,4.6,1.7,7l-45.3,75c-0.9,1.5-2.6,2.5-4.4,2.5
		c-0.9,0-1.8-0.3-2.6-0.7l-75-45.3c-2.4-1.5-3.2-4.6-1.7-7L60,6.1C60.9,4.6,62.6,3.7,64.4,3.7 M64.4,1.7c-2.4,0-4.8,1.2-6.1,3.4
		L13,80.1c-2,3.3-0.9,7.7,2.4,9.7l75,45.3c1.1,0.7,2.4,1,3.6,1c2.4,0,4.8-1.2,6.1-3.4l45.3-75c2-3.3,0.9-7.7-2.4-9.7L68,2.7
		C66.9,2,65.6,1.7,64.4,1.7L64.4,1.7z"/>
</g>
<g>
	<path class="st3" d="M101.3,138c-1.1,0-2.1-0.4-2.9-1.2L34.7,76.7c-0.8-0.8-1.3-1.8-1.3-3c0-1.1,0.4-2.2,1.2-3L94.8,7
		c0.8-0.9,1.9-1.3,3.1-1.3c1.1,0,2.1,0.4,2.9,1.2L164.5,67c1.7,1.6,1.8,4.3,0.2,6l-60.2,63.7C103.6,137.6,102.5,138,101.3,138z"/>
	<path class="st2" d="M97.9,6.6L97.9,6.6c0.8,0,1.6,0.3,2.2,0.9l63.7,60.2c0.6,0.6,1,1.4,1,2.3s-0.3,1.7-0.9,2.3L103.7,136
		c-0.6,0.7-1.5,1-2.4,1c-0.8,0-1.6-0.3-2.2-0.9L35.4,75.9c-0.6-0.6-1-1.4-1-2.3s0.3-1.7,0.9-2.3L95.5,7.6C96.1,7,97,6.6,97.9,6.6
		 M97.9,4.6c-1.4,0-2.8,0.5-3.8,1.6L33.8,70c-2,2.1-1.9,5.4,0.2,7.4l63.7,60.2c1,1,2.3,1.4,3.6,1.4c1.4,0,2.8-0.5,3.8-1.6l60.2-63.7
		c2-2.1,1.9-5.4-0.2-7.4L101.5,6.1C100.5,5.1,99.2,4.6,97.9,4.6L97.9,4.6z"/>
</g>
<g>
	<path class="st4" d="M108.8,146.7c-2.3,0-4.3-1.1-5.5-3L56.4,69.9c-0.9-1.4-1.2-3.1-0.8-4.8c0.4-1.8,1.5-3.3,3-4.2l72.2-45.5
		c1.1-0.7,2.4-1.1,3.6-1.1c2.3,0,4.3,1.1,5.5,3l46.9,73.8c0.9,1.4,1.2,3.1,0.8,4.8c-0.4,1.8-1.5,3.3-3,4.2l-72.2,45.5
		C111.3,146.3,110.1,146.7,108.8,146.7z"/>
	<path class="st2" d="M134.4,15.3L134.4,15.3c1.9,0,3.7,0.9,4.7,2.5L186,91.6c0.8,1.2,1,2.6,0.7,4.1s-1.2,2.8-2.6,3.6l-72.2,45.5
		c-0.9,0.6-2,0.9-3.1,0.9c-1.9,0-3.7-0.9-4.7-2.5L57.2,69.3c-0.8-1.2-1-2.6-0.7-4.1s1.2-2.8,2.6-3.6l72.2-45.5
		C132.2,15.6,133.3,15.3,134.4,15.3 M134.4,13.3c-1.4,0-2.9,0.4-4.2,1.2L58,60c-3.6,2.3-4.7,7-2.5,10.4l46.9,73.8
		c1.4,2.2,3.9,3.4,6.4,3.4c1.4,0,2.9-0.4,4.2-1.2l72.2-45.5c3.6-2.3,4.7-7,2.5-10.4l-46.9-73.8C139.3,14.5,136.9,13.3,134.4,13.3
		L134.4,13.3z"/>
</g>
<text transform="matrix(1 0 0 1 109.2402 104.8818)" class="st5 st6 st7"> </text>
<text transform="matrix(1 0 0 1 99.5501 97.8809)" class="st5 st8 st7">&lt;RAL/&gt;.</text>
</svg>
